<svg xmlns="http://www.w3.org/2000/svg" xmlns:xlink="http://www.w3.org/1999/xlink" width="500" zoomAndPan="magnify" viewBox="0 0 375 114.749999" height="153" preserveAspectRatio="xMidYMid meet" version="1.0"><defs><g/><clipPath id="9636caf080"><path d="M 15 36 L 210.765625 36 L 210.765625 95 L 15 95 Z M 15 36 " clip-rule="nonzero"/></clipPath><clipPath id="554f338bf4"><path d="M 84.65625 72.492188 L 210.765625 72.492188 L 210.765625 101.117188 L 84.65625 101.117188 Z M 84.65625 72.492188 " clip-rule="nonzero"/></clipPath><clipPath id="086f3c1929"><path d="M 267.921875 3.925781 L 301 3.925781 L 301 96 L 267.921875 96 Z M 267.921875 3.925781 " clip-rule="nonzero"/></clipPath><clipPath id="9b7f28132e"><path d="M 305 21 L 339 21 L 339 113.667969 L 305 113.667969 Z M 305 21 " clip-rule="nonzero"/></clipPath><clipPath id="610c39dcb8"><path d="M 349 7 L 354.832031 7 L 354.832031 14 L 349 14 Z M 349 7 " clip-rule="nonzero"/></clipPath><clipPath id="01a33bc443"><path d="M 15 36 L 210.765625 36 L 210.765625 95 L 15 95 Z M 15 36 " clip-rule="nonzero"/></clipPath><clipPath id="c5bf6fbc6e"><path d="M 84.65625 72.492188 L 210.765625 72.492188 L 210.765625 101.117188 L 84.65625 101.117188 Z M 84.65625 72.492188 " clip-rule="nonzero"/></clipPath><clipPath id="cf836755ca"><path d="M 267.921875 3.925781 L 301 3.925781 L 301 96 L 267.921875 96 Z M 267.921875 3.925781 " clip-rule="nonzero"/></clipPath><clipPath id="2f9cbabab7"><path d="M 305 21 L 339 21 L 339 113.667969 L 305 113.667969 Z M 305 21 " clip-rule="nonzero"/></clipPath><clipPath id="02b48af884"><path d="M 349 7 L 354.832031 7 L 354.832031 14 L 349 14 Z M 349 7 " clip-rule="nonzero"/></clipPath></defs><g fill="#eae1c8" fill-opacity="1"><g transform="translate(53.741333, 79.304472)"><g><path d="M 2.5625 -30.296875 C 2.5625 -36.273438 3.769531 -41.597656 6.1875 -46.265625 C 8.601562 -50.929688 12.054688 -54.554688 16.546875 -57.140625 C 21.046875 -59.734375 26.34375 -61.03125 32.4375 -61.03125 C 37.675781 -61.03125 42.359375 -60.046875 46.484375 -58.078125 C 50.609375 -56.117188 53.960938 -53.347656 56.546875 -49.765625 C 59.140625 -46.179688 60.863281 -42 61.71875 -37.21875 L 41.734375 -37.21875 C 40.828125 -39.207031 39.535156 -40.753906 37.859375 -41.859375 C 36.179688 -42.972656 34.257812 -43.53125 32.09375 -43.53125 C 28.90625 -43.53125 26.382812 -42.332031 24.53125 -39.9375 C 22.6875 -37.550781 21.765625 -34.335938 21.765625 -30.296875 C 21.765625 -26.253906 22.6875 -23.039062 24.53125 -20.65625 C 26.382812 -18.269531 28.90625 -17.078125 32.09375 -17.078125 C 34.257812 -17.078125 36.179688 -17.628906 37.859375 -18.734375 C 39.535156 -19.847656 40.828125 -21.398438 41.734375 -23.390625 L 61.71875 -23.390625 C 60.863281 -18.609375 59.140625 -14.425781 56.546875 -10.84375 C 53.960938 -7.257812 50.609375 -4.484375 46.484375 -2.515625 C 42.359375 -0.554688 37.675781 0.421875 32.4375 0.421875 C 26.34375 0.421875 21.046875 -0.867188 16.546875 -3.453125 C 12.054688 -6.046875 8.601562 -9.675781 6.1875 -14.34375 C 3.769531 -19.007812 2.5625 -24.328125 2.5625 -30.296875 Z M 2.5625 -30.296875 "/></g></g></g><g fill="#eae1c8" fill-opacity="1"><g transform="translate(110.92119, 79.304472)"><g><path d="M 33.71875 0.59375 C 28.03125 0.59375 22.804688 -0.738281 18.046875 -3.40625 C 13.296875 -6.082031 9.523438 -9.78125 6.734375 -14.5 C 3.953125 -19.226562 2.5625 -24.550781 2.5625 -30.46875 C 2.5625 -36.382812 3.953125 -41.703125 6.734375 -46.421875 C 9.523438 -51.148438 13.296875 -54.835938 18.046875 -57.484375 C 22.804688 -60.128906 28.03125 -61.453125 33.71875 -61.453125 C 39.40625 -61.453125 44.609375 -60.128906 49.328125 -57.484375 C 54.054688 -54.835938 57.800781 -51.148438 60.5625 -46.421875 C 63.320312 -41.703125 64.703125 -36.382812 64.703125 -30.46875 C 64.703125 -24.550781 63.320312 -19.226562 60.5625 -14.5 C 57.800781 -9.78125 54.046875 -6.082031 49.296875 -3.40625 C 44.546875 -0.738281 39.351562 0.59375 33.71875 0.59375 Z M 33.71875 -17.078125 C 37.46875 -17.078125 40.367188 -18.285156 42.421875 -20.703125 C 44.472656 -23.117188 45.5 -26.375 45.5 -30.46875 C 45.5 -34.625 44.472656 -37.910156 42.421875 -40.328125 C 40.367188 -42.742188 37.46875 -43.953125 33.71875 -43.953125 C 29.90625 -43.953125 26.972656 -42.742188 24.921875 -40.328125 C 22.878906 -37.910156 21.859375 -34.625 21.859375 -30.46875 C 21.859375 -26.375 22.878906 -23.117188 24.921875 -20.703125 C 26.972656 -18.285156 29.90625 -17.078125 33.71875 -17.078125 Z M 33.71875 -17.078125 "/></g></g></g><g fill="#eae1c8" fill-opacity="1"><g transform="translate(171.088157, 79.304472)"><g><path d="M 29.453125 -60.4375 C 35.765625 -60.4375 41.296875 -59.15625 46.046875 -56.59375 C 50.796875 -54.03125 54.453125 -50.472656 57.015625 -45.921875 C 59.578125 -41.367188 60.859375 -36.191406 60.859375 -30.390625 C 60.859375 -24.640625 59.578125 -19.457031 57.015625 -14.84375 C 54.453125 -10.238281 50.796875 -6.613281 46.046875 -3.96875 C 41.296875 -1.320312 35.765625 0 29.453125 0 L 4.265625 0 L 4.265625 -60.4375 Z M 27.734375 -16.90625 C 32.003906 -16.90625 35.390625 -18.070312 37.890625 -20.40625 C 40.398438 -22.738281 41.65625 -26.066406 41.65625 -30.390625 C 41.65625 -34.710938 40.398438 -38.039062 37.890625 -40.375 C 35.390625 -42.707031 32.003906 -43.875 27.734375 -43.875 L 23.21875 -43.875 L 23.21875 -16.90625 Z M 27.734375 -16.90625 "/></g></g></g><g fill="#eae1c8" fill-opacity="1"><g transform="translate(227.414545, 79.304472)"><g><path d="M 23.21875 -45.328125 L 23.21875 -37.90625 L 42 -37.90625 L 42 -23.640625 L 23.21875 -23.640625 L 23.21875 -15.109375 L 44.5625 -15.109375 L 44.5625 0 L 4.265625 0 L 4.265625 -60.4375 L 44.5625 -60.4375 L 44.5625 -45.328125 Z M 23.21875 -45.328125 "/></g></g></g><g clip-path="url(#9636caf080)"><path fill="#3cbcc7" d="M 17.796875 36.960938 C 16.402344 50.355469 20.703125 65.96875 34.558594 73.523438 C 45.691406 79.597656 58.671875 80.503906 71.089844 79.722656 C 84.761719 78.863281 98.21875 75.96875 111.390625 72.316406 C 121.058594 69.632812 130.589844 66.488281 140.167969 63.535156 C 153.734375 59.347656 168.121094 56.320312 182.09375 58.863281 C 192.605469 60.773438 202.503906 65.894531 210.179688 73.324219 C 200.207031 67.992188 188.65625 66.058594 177.445312 66.597656 C 172.507812 66.835938 167.636719 67.828125 162.847656 69.046875 C 135.539062 76.015625 110.167969 90.609375 82.144531 93.632812 C 73.332031 94.582031 64.242188 94.914062 55.425781 93.8125 C 41.070312 92.019531 29.125 85.066406 21.753906 72.4375 C 15.554688 61.808594 13.398438 48.453125 17.796875 36.960938 " fill-opacity="1" fill-rule="nonzero"/></g><g clip-path="url(#554f338bf4)"><path fill="#1c96ba" d="M 135.453125 87.046875 C 148.234375 81.820312 160.421875 75.476562 174.074219 73.390625 C 186.835938 71.441406 200.765625 73.128906 211.117188 80.667969 C 200.425781 76.59375 189.6875 76.433594 179.027344 78.539062 C 166.117188 81.09375 152.898438 87.070312 140.511719 91.507812 C 132.066406 94.53125 124.183594 97.550781 115.367188 99.199219 C 105.363281 101.074219 95.074219 101.945312 84.960938 100.761719 C 103.679688 99.9375 119.378906 93.617188 135.453125 87.046875 " fill-opacity="1" fill-rule="nonzero"/></g><path fill="#1c96ba" d="M 32.375 34.621094 C 33.890625 32.1875 35.945312 30.144531 38.578125 28.792969 C 42.554688 26.75 47.671875 26.03125 51.890625 27.757812 C 50.660156 27.253906 48.199219 27.703125 46.898438 27.835938 C 42.164062 28.308594 38.3125 31.398438 36.1875 35.609375 C 32.863281 42.199219 34.597656 51.476562 38.996094 57.183594 C 40.335938 58.921875 42.859375 60.664062 44.722656 61.820312 C 56.4375 69.089844 71.019531 67.710938 83.96875 65.261719 C 87.667969 64.5625 92.21875 64.085938 95.882812 63.234375 C 106.570312 60.761719 116.390625 57.992188 127.042969 55.378906 C 127.042969 55.378906 123.210938 56.816406 122.402344 57.117188 C 120.789062 57.722656 119.175781 58.328125 117.5625 58.933594 C 104.667969 63.769531 91.691406 68.554688 78.089844 70.980469 C 67.535156 72.859375 56.507812 73.875 46.265625 69.980469 C 39.449219 67.390625 33.335938 62.515625 30.679688 55.722656 C 28.183594 49.335938 28.574219 40.738281 32.375 34.621094 " fill-opacity="1" fill-rule="nonzero"/><path fill="#3cbcc7" d="M 51.695312 55.875 C 45.539062 50.632812 44.503906 41.746094 49.382812 36.019531 C 51.085938 34.015625 53.292969 32.664062 55.703125 31.980469 C 52.1875 32.335938 48.875 33.933594 46.484375 36.738281 C 41.320312 42.804688 42.417969 52.222656 48.9375 57.773438 C 55.453125 63.324219 64.925781 62.910156 70.09375 56.839844 C 70.359375 56.527344 70.613281 56.203125 70.847656 55.867188 C 65.839844 60.746094 57.519531 60.835938 51.695312 55.875 " fill-opacity="1" fill-rule="nonzero"/><g fill="#3cbcc7" fill-opacity="1"><g transform="translate(162.752173, 107.793165)"><g><path d="M 9.671875 -8.15625 C 10.253906 -8.0625 10.78125 -7.828125 11.25 -7.453125 C 11.726562 -7.078125 12.109375 -6.609375 12.390625 -6.046875 C 12.671875 -5.484375 12.8125 -4.882812 12.8125 -4.25 C 12.8125 -3.445312 12.609375 -2.722656 12.203125 -2.078125 C 11.796875 -1.429688 11.203125 -0.921875 10.421875 -0.546875 C 9.640625 -0.179688 8.71875 0 7.65625 0 L 1.75 0 L 1.75 -15.828125 L 7.421875 -15.828125 C 8.503906 -15.828125 9.421875 -15.648438 10.171875 -15.296875 C 10.929688 -14.941406 11.5 -14.460938 11.875 -13.859375 C 12.257812 -13.253906 12.453125 -12.570312 12.453125 -11.8125 C 12.453125 -10.875 12.195312 -10.097656 11.6875 -9.484375 C 11.175781 -8.867188 10.503906 -8.425781 9.671875 -8.15625 Z M 3.8125 -9 L 7.296875 -9 C 8.265625 -9 9.015625 -9.222656 9.546875 -9.671875 C 10.078125 -10.128906 10.34375 -10.757812 10.34375 -11.5625 C 10.34375 -12.363281 10.078125 -12.988281 9.546875 -13.4375 C 9.015625 -13.894531 8.25 -14.125 7.25 -14.125 L 3.8125 -14.125 Z M 7.46875 -1.703125 C 8.5 -1.703125 9.300781 -1.941406 9.875 -2.421875 C 10.457031 -2.910156 10.75 -3.585938 10.75 -4.453125 C 10.75 -5.328125 10.441406 -6.019531 9.828125 -6.53125 C 9.222656 -7.039062 8.414062 -7.296875 7.40625 -7.296875 L 3.8125 -7.296875 L 3.8125 -1.703125 Z M 7.46875 -1.703125 "/></g></g></g><g fill="#3cbcc7" fill-opacity="1"><g transform="translate(194.856756, 107.793165)"><g><path d="M 3.8125 -1.6875 L 9.359375 -1.6875 L 9.359375 0 L 1.75 0 L 1.75 -15.828125 L 3.8125 -15.828125 Z M 3.8125 -1.6875 "/></g></g></g><g fill="#3cbcc7" fill-opacity="1"><g transform="translate(222.850642, 107.793165)"><g><path d="M 3.765625 -15.828125 L 3.765625 -5.8125 C 3.765625 -4.40625 4.109375 -3.359375 4.796875 -2.671875 C 5.492188 -1.992188 6.453125 -1.65625 7.671875 -1.65625 C 8.890625 -1.65625 9.84375 -1.992188 10.53125 -2.671875 C 11.21875 -3.359375 11.5625 -4.40625 11.5625 -5.8125 L 11.5625 -15.828125 L 13.625 -15.828125 L 13.625 -5.84375 C 13.625 -4.519531 13.359375 -3.40625 12.828125 -2.5 C 12.304688 -1.601562 11.59375 -0.9375 10.6875 -0.5 C 9.789062 -0.0625 8.78125 0.15625 7.65625 0.15625 C 6.53125 0.15625 5.515625 -0.0625 4.609375 -0.5 C 3.710938 -0.9375 3.003906 -1.601562 2.484375 -2.5 C 1.960938 -3.40625 1.703125 -4.519531 1.703125 -5.84375 L 1.703125 -15.828125 Z M 3.765625 -15.828125 "/></g></g></g><g fill="#3cbcc7" fill-opacity="1"><g transform="translate(256.363319, 107.793165)"><g><path d="M 3.8125 -14.15625 L 3.8125 -8.859375 L 9.59375 -8.859375 L 9.59375 -7.15625 L 3.8125 -7.15625 L 3.8125 -1.703125 L 10.265625 -1.703125 L 10.265625 0 L 1.75 0 L 1.75 -15.859375 L 10.265625 -15.859375 L 10.265625 -14.15625 Z M 3.8125 -14.15625 "/></g></g></g><g clip-path="url(#086f3c1929)"><path fill="#eae1c8" d="M 267.953125 55.667969 L 267.953125 44.179688 C 270.28125 44.054688 272.035156 43.703125 273.214844 43.128906 C 274.394531 42.550781 275.417969 41.589844 276.277344 40.230469 C 277.140625 38.875 277.730469 37.175781 278.050781 35.132812 C 278.304688 33.601562 278.433594 30.9375 278.433594 27.140625 C 278.433594 20.953125 278.71875 16.636719 279.292969 14.195312 C 279.867188 11.753906 280.90625 9.792969 282.40625 8.308594 C 283.90625 6.824219 286.089844 5.652344 288.960938 4.792969 C 290.90625 4.214844 293.972656 3.929688 298.152344 3.929688 L 300.6875 3.929688 L 300.6875 15.367188 C 297.148438 15.367188 294.871094 15.566406 293.867188 15.964844 C 292.863281 16.367188 292.121094 16.96875 291.640625 17.785156 C 291.164062 18.597656 290.925781 19.996094 290.925781 21.972656 C 290.925781 23.984375 290.78125 27.796875 290.492188 33.410156 C 290.332031 36.570312 289.917969 39.132812 289.25 41.09375 C 288.578125 43.054688 287.726562 44.675781 286.6875 45.949219 C 285.652344 47.226562 284.0625 48.550781 281.925781 49.925781 C 283.808594 51.007812 285.347656 52.277344 286.546875 53.730469 C 287.742188 55.179688 288.660156 56.941406 289.296875 59.019531 C 289.933594 61.089844 290.351562 63.867188 290.542969 67.34375 C 290.765625 72.640625 290.875 76.023438 290.875 77.492188 C 290.875 79.597656 291.132812 81.0625 291.640625 81.894531 C 292.152344 82.722656 292.925781 83.355469 293.964844 83.785156 C 295 84.214844 297.242188 84.429688 300.6875 84.429688 L 300.6875 95.917969 L 298.152344 95.917969 C 293.84375 95.917969 290.542969 95.574219 288.242188 94.890625 C 285.945312 94.203125 284.007812 93.0625 282.429688 91.46875 C 280.851562 89.871094 279.789062 87.902344 279.246094 85.554688 C 278.703125 83.210938 278.433594 79.515625 278.433594 74.476562 C 278.433594 68.605469 278.175781 64.792969 277.667969 63.039062 C 276.964844 60.484375 275.902344 58.65625 274.484375 57.558594 C 273.0625 56.457031 270.886719 55.828125 267.953125 55.667969 " fill-opacity="1" fill-rule="nonzero"/></g><path fill="#3cbcc7" d="M 340.5625 27.757812 L 333.070312 27.757812 L 333.070312 20.265625 L 340.5625 20.265625 L 340.5625 27.757812 " fill-opacity="1" fill-rule="nonzero"/><path fill="#3cbcc7" d="M 338.792969 42.738281 L 333.070312 42.738281 L 333.070312 37.015625 L 338.792969 37.015625 L 338.792969 42.738281 " fill-opacity="1" fill-rule="nonzero"/><g clip-path="url(#9b7f28132e)"><path fill="#3cbcc7" d="M 317 33.480469 L 317 27.757812 L 322.722656 27.757812 L 322.722656 33.480469 Z M 331.558594 60.242188 C 330.121094 59.140625 329.054688 57.3125 328.351562 54.761719 C 327.964844 53.320312 327.734375 50.5625 327.660156 46.484375 L 322.722656 46.484375 L 322.722656 38.996094 L 327.550781 38.996094 C 327.433594 36.105469 327.179688 33.855469 326.796875 32.242188 C 326.238281 29.898438 325.175781 27.917969 323.613281 26.308594 C 322.050781 24.695312 320.121094 23.554688 317.824219 22.886719 C 315.523438 22.214844 312.222656 21.882812 307.914062 21.882812 L 305.378906 21.882812 L 305.378906 33.320312 C 308.984375 33.320312 311.304688 33.535156 312.34375 33.964844 C 313.378906 34.394531 314.097656 35.011719 314.496094 35.808594 C 314.894531 36.605469 315.109375 38.199219 315.140625 40.59375 C 315.300781 48.1875 315.554688 53.101562 315.90625 55.335938 C 316.449219 58.589844 317.46875 61.269531 318.972656 63.375 C 320.054688 64.84375 321.777344 66.34375 324.140625 67.875 C 322.320312 68.925781 320.828125 70.148438 319.664062 71.535156 C 318.5 72.925781 317.566406 74.617188 316.863281 76.609375 C 316.164062 78.601562 315.734375 81.261719 315.574219 84.578125 C 315.316406 90.066406 315.183594 93.78125 315.167969 95.730469 C 315.148438 97.675781 314.894531 99.054688 314.402344 99.871094 C 313.90625 100.683594 313.132812 101.304688 312.078125 101.738281 C 311.027344 102.167969 308.792969 102.382812 305.378906 102.382812 L 305.378906 113.871094 L 307.914062 113.871094 C 312.09375 113.871094 315.15625 113.582031 317.105469 113.007812 C 320.007812 112.144531 322.207031 110.972656 323.710938 109.488281 C 325.207031 108.007812 326.238281 106.035156 326.796875 103.578125 C 327.355469 101.121094 327.632812 96.796875 327.632812 90.609375 C 327.632812 86.84375 327.761719 84.195312 328.015625 82.664062 C 328.367188 80.621094 328.964844 78.921875 329.8125 77.566406 C 330.65625 76.210938 331.667969 75.246094 332.851562 74.671875 C 334.03125 74.097656 335.785156 73.746094 338.117188 73.617188 L 338.117188 62.132812 C 335.179688 61.972656 332.996094 61.339844 331.558594 60.242188 " fill-opacity="1" fill-rule="nonzero"/></g><g clip-path="url(#610c39dcb8)"><path fill="#3cbcc7" d="M 355.167969 13.210938 L 349.445312 13.210938 L 349.445312 7.484375 L 355.167969 7.484375 L 355.167969 13.210938 " fill-opacity="1" fill-rule="nonzero"/></g><path fill="#3cbcc7" d="M 326.46875 20.265625 L 315.785156 20.265625 L 315.785156 9.582031 L 326.46875 9.582031 L 326.46875 20.265625 " fill-opacity="1" fill-rule="nonzero"/><g fill="#eae1c8" fill-opacity="1"><g transform="translate(53.741333, 79.304472)"><g><path d="M 2.5625 -30.296875 C 2.5625 -36.273438 3.769531 -41.597656 6.1875 -46.265625 C 8.601562 -50.929688 12.054688 -54.554688 16.546875 -57.140625 C 21.046875 -59.734375 26.34375 -61.03125 32.4375 -61.03125 C 37.675781 -61.03125 42.359375 -60.046875 46.484375 -58.078125 C 50.609375 -56.117188 53.960938 -53.347656 56.546875 -49.765625 C 59.140625 -46.179688 60.863281 -42 61.71875 -37.21875 L 41.734375 -37.21875 C 40.828125 -39.207031 39.535156 -40.753906 37.859375 -41.859375 C 36.179688 -42.972656 34.257812 -43.53125 32.09375 -43.53125 C 28.90625 -43.53125 26.382812 -42.332031 24.53125 -39.9375 C 22.6875 -37.550781 21.765625 -34.335938 21.765625 -30.296875 C 21.765625 -26.253906 22.6875 -23.039062 24.53125 -20.65625 C 26.382812 -18.269531 28.90625 -17.078125 32.09375 -17.078125 C 34.257812 -17.078125 36.179688 -17.628906 37.859375 -18.734375 C 39.535156 -19.847656 40.828125 -21.398438 41.734375 -23.390625 L 61.71875 -23.390625 C 60.863281 -18.609375 59.140625 -14.425781 56.546875 -10.84375 C 53.960938 -7.257812 50.609375 -4.484375 46.484375 -2.515625 C 42.359375 -0.554688 37.675781 0.421875 32.4375 0.421875 C 26.34375 0.421875 21.046875 -0.867188 16.546875 -3.453125 C 12.054688 -6.046875 8.601562 -9.675781 6.1875 -14.34375 C 3.769531 -19.007812 2.5625 -24.328125 2.5625 -30.296875 Z M 2.5625 -30.296875 "/></g></g></g><g fill="#eae1c8" fill-opacity="1"><g transform="translate(110.92119, 79.304472)"><g><path d="M 33.71875 0.59375 C 28.03125 0.59375 22.804688 -0.738281 18.046875 -3.40625 C 13.296875 -6.082031 9.523438 -9.78125 6.734375 -14.5 C 3.953125 -19.226562 2.5625 -24.550781 2.5625 -30.46875 C 2.5625 -36.382812 3.953125 -41.703125 6.734375 -46.421875 C 9.523438 -51.148438 13.296875 -54.835938 18.046875 -57.484375 C 22.804688 -60.128906 28.03125 -61.453125 33.71875 -61.453125 C 39.40625 -61.453125 44.609375 -60.128906 49.328125 -57.484375 C 54.054688 -54.835938 57.800781 -51.148438 60.5625 -46.421875 C 63.320312 -41.703125 64.703125 -36.382812 64.703125 -30.46875 C 64.703125 -24.550781 63.320312 -19.226562 60.5625 -14.5 C 57.800781 -9.78125 54.046875 -6.082031 49.296875 -3.40625 C 44.546875 -0.738281 39.351562 0.59375 33.71875 0.59375 Z M 33.71875 -17.078125 C 37.46875 -17.078125 40.367188 -18.285156 42.421875 -20.703125 C 44.472656 -23.117188 45.5 -26.375 45.5 -30.46875 C 45.5 -34.625 44.472656 -37.910156 42.421875 -40.328125 C 40.367188 -42.742188 37.46875 -43.953125 33.71875 -43.953125 C 29.90625 -43.953125 26.972656 -42.742188 24.921875 -40.328125 C 22.878906 -37.910156 21.859375 -34.625 21.859375 -30.46875 C 21.859375 -26.375 22.878906 -23.117188 24.921875 -20.703125 C 26.972656 -18.285156 29.90625 -17.078125 33.71875 -17.078125 Z M 33.71875 -17.078125 "/></g></g></g><g fill="#eae1c8" fill-opacity="1"><g transform="translate(171.088157, 79.304472)"><g><path d="M 29.453125 -60.4375 C 35.765625 -60.4375 41.296875 -59.15625 46.046875 -56.59375 C 50.796875 -54.03125 54.453125 -50.472656 57.015625 -45.921875 C 59.578125 -41.367188 60.859375 -36.191406 60.859375 -30.390625 C 60.859375 -24.640625 59.578125 -19.457031 57.015625 -14.84375 C 54.453125 -10.238281 50.796875 -6.613281 46.046875 -3.96875 C 41.296875 -1.320312 35.765625 0 29.453125 0 L 4.265625 0 L 4.265625 -60.4375 Z M 27.734375 -16.90625 C 32.003906 -16.90625 35.390625 -18.070312 37.890625 -20.40625 C 40.398438 -22.738281 41.65625 -26.066406 41.65625 -30.390625 C 41.65625 -34.710938 40.398438 -38.039062 37.890625 -40.375 C 35.390625 -42.707031 32.003906 -43.875 27.734375 -43.875 L 23.21875 -43.875 L 23.21875 -16.90625 Z M 27.734375 -16.90625 "/></g></g></g><g fill="#eae1c8" fill-opacity="1"><g transform="translate(227.414545, 79.304472)"><g><path d="M 23.21875 -45.328125 L 23.21875 -37.90625 L 42 -37.90625 L 42 -23.640625 L 23.21875 -23.640625 L 23.21875 -15.109375 L 44.5625 -15.109375 L 44.5625 0 L 4.265625 0 L 4.265625 -60.4375 L 44.5625 -60.4375 L 44.5625 -45.328125 Z M 23.21875 -45.328125 "/></g></g></g><g clip-path="url(#01a33bc443)"><path fill="#3cbcc7" d="M 17.796875 36.960938 C 16.402344 50.355469 20.703125 65.96875 34.558594 73.523438 C 45.691406 79.597656 58.671875 80.503906 71.089844 79.722656 C 84.761719 78.863281 98.21875 75.96875 111.390625 72.316406 C 121.058594 69.632812 130.589844 66.488281 140.167969 63.535156 C 153.734375 59.347656 168.121094 56.320312 182.09375 58.863281 C 192.605469 60.773438 202.503906 65.894531 210.179688 73.324219 C 200.207031 67.992188 188.65625 66.058594 177.445312 66.597656 C 172.507812 66.835938 167.636719 67.828125 162.847656 69.046875 C 135.539062 76.015625 110.167969 90.609375 82.144531 93.632812 C 73.332031 94.582031 64.242188 94.914062 55.425781 93.8125 C 41.070312 92.019531 29.125 85.066406 21.753906 72.4375 C 15.554688 61.808594 13.398438 48.453125 17.796875 36.960938 " fill-opacity="1" fill-rule="nonzero"/></g><g clip-path="url(#c5bf6fbc6e)"><path fill="#1c96ba" d="M 135.453125 87.046875 C 148.234375 81.820312 160.421875 75.476562 174.074219 73.390625 C 186.835938 71.441406 200.765625 73.128906 211.117188 80.667969 C 200.425781 76.59375 189.6875 76.433594 179.027344 78.539062 C 166.117188 81.09375 152.898438 87.070312 140.511719 91.507812 C 132.066406 94.53125 124.183594 97.550781 115.367188 99.199219 C 105.363281 101.074219 95.074219 101.945312 84.960938 100.761719 C 103.679688 99.9375 119.378906 93.617188 135.453125 87.046875 " fill-opacity="1" fill-rule="nonzero"/></g><path fill="#1c96ba" d="M 32.375 34.621094 C 33.890625 32.1875 35.945312 30.144531 38.578125 28.792969 C 42.554688 26.75 47.671875 26.03125 51.890625 27.757812 C 50.660156 27.253906 48.199219 27.703125 46.898438 27.835938 C 42.164062 28.308594 38.3125 31.398438 36.1875 35.609375 C 32.863281 42.199219 34.597656 51.476562 38.996094 57.183594 C 40.335938 58.921875 42.859375 60.664062 44.722656 61.820312 C 56.4375 69.089844 71.019531 67.710938 83.96875 65.261719 C 87.667969 64.5625 92.21875 64.085938 95.882812 63.234375 C 106.570312 60.761719 116.390625 57.992188 127.042969 55.378906 C 127.042969 55.378906 123.210938 56.816406 122.402344 57.117188 C 120.789062 57.722656 119.175781 58.328125 117.5625 58.933594 C 104.667969 63.769531 91.691406 68.554688 78.089844 70.980469 C 67.535156 72.859375 56.507812 73.875 46.265625 69.980469 C 39.449219 67.390625 33.335938 62.515625 30.679688 55.722656 C 28.183594 49.335938 28.574219 40.738281 32.375 34.621094 " fill-opacity="1" fill-rule="nonzero"/><path fill="#3cbcc7" d="M 51.695312 55.875 C 45.539062 50.632812 44.503906 41.746094 49.382812 36.019531 C 51.085938 34.015625 53.292969 32.664062 55.703125 31.980469 C 52.1875 32.335938 48.875 33.933594 46.484375 36.738281 C 41.320312 42.804688 42.417969 52.222656 48.9375 57.773438 C 55.453125 63.324219 64.925781 62.910156 70.09375 56.839844 C 70.359375 56.527344 70.613281 56.203125 70.847656 55.867188 C 65.839844 60.746094 57.519531 60.835938 51.695312 55.875 " fill-opacity="1" fill-rule="nonzero"/><g fill="#3cbcc7" fill-opacity="1"><g transform="translate(162.752173, 107.793165)"><g><path d="M 9.671875 -8.15625 C 10.253906 -8.0625 10.78125 -7.828125 11.25 -7.453125 C 11.726562 -7.078125 12.109375 -6.609375 12.390625 -6.046875 C 12.671875 -5.484375 12.8125 -4.882812 12.8125 -4.25 C 12.8125 -3.445312 12.609375 -2.722656 12.203125 -2.078125 C 11.796875 -1.429688 11.203125 -0.921875 10.421875 -0.546875 C 9.640625 -0.179688 8.71875 0 7.65625 0 L 1.75 0 L 1.75 -15.828125 L 7.421875 -15.828125 C 8.503906 -15.828125 9.421875 -15.648438 10.171875 -15.296875 C 10.929688 -14.941406 11.5 -14.460938 11.875 -13.859375 C 12.257812 -13.253906 12.453125 -12.570312 12.453125 -11.8125 C 12.453125 -10.875 12.195312 -10.097656 11.6875 -9.484375 C 11.175781 -8.867188 10.503906 -8.425781 9.671875 -8.15625 Z M 3.8125 -9 L 7.296875 -9 C 8.265625 -9 9.015625 -9.222656 9.546875 -9.671875 C 10.078125 -10.128906 10.34375 -10.757812 10.34375 -11.5625 C 10.34375 -12.363281 10.078125 -12.988281 9.546875 -13.4375 C 9.015625 -13.894531 8.25 -14.125 7.25 -14.125 L 3.8125 -14.125 Z M 7.46875 -1.703125 C 8.5 -1.703125 9.300781 -1.941406 9.875 -2.421875 C 10.457031 -2.910156 10.75 -3.585938 10.75 -4.453125 C 10.75 -5.328125 10.441406 -6.019531 9.828125 -6.53125 C 9.222656 -7.039062 8.414062 -7.296875 7.40625 -7.296875 L 3.8125 -7.296875 L 3.8125 -1.703125 Z M 7.46875 -1.703125 "/></g></g></g><g fill="#3cbcc7" fill-opacity="1"><g transform="translate(194.856756, 107.793165)"><g><path d="M 3.8125 -1.6875 L 9.359375 -1.6875 L 9.359375 0 L 1.75 0 L 1.75 -15.828125 L 3.8125 -15.828125 Z M 3.8125 -1.6875 "/></g></g></g><g fill="#3cbcc7" fill-opacity="1"><g transform="translate(222.850642, 107.793165)"><g><path d="M 3.765625 -15.828125 L 3.765625 -5.8125 C 3.765625 -4.40625 4.109375 -3.359375 4.796875 -2.671875 C 5.492188 -1.992188 6.453125 -1.65625 7.671875 -1.65625 C 8.890625 -1.65625 9.84375 -1.992188 10.53125 -2.671875 C 11.21875 -3.359375 11.5625 -4.40625 11.5625 -5.8125 L 11.5625 -15.828125 L 13.625 -15.828125 L 13.625 -5.84375 C 13.625 -4.519531 13.359375 -3.40625 12.828125 -2.5 C 12.304688 -1.601562 11.59375 -0.9375 10.6875 -0.5 C 9.789062 -0.0625 8.78125 0.15625 7.65625 0.15625 C 6.53125 0.15625 5.515625 -0.0625 4.609375 -0.5 C 3.710938 -0.9375 3.003906 -1.601562 2.484375 -2.5 C 1.960938 -3.40625 1.703125 -4.519531 1.703125 -5.84375 L 1.703125 -15.828125 Z M 3.765625 -15.828125 "/></g></g></g><g fill="#3cbcc7" fill-opacity="1"><g transform="translate(256.363319, 107.793165)"><g><path d="M 3.8125 -14.15625 L 3.8125 -8.859375 L 9.59375 -8.859375 L 9.59375 -7.15625 L 3.8125 -7.15625 L 3.8125 -1.703125 L 10.265625 -1.703125 L 10.265625 0 L 1.75 0 L 1.75 -15.859375 L 10.265625 -15.859375 L 10.265625 -14.15625 Z M 3.8125 -14.15625 "/></g></g></g><g clip-path="url(#cf836755ca)"><path fill="#eae1c8" d="M 267.953125 55.667969 L 267.953125 44.179688 C 270.28125 44.054688 272.035156 43.703125 273.214844 43.128906 C 274.394531 42.550781 275.417969 41.589844 276.277344 40.230469 C 277.140625 38.875 277.730469 37.175781 278.050781 35.132812 C 278.304688 33.601562 278.433594 30.9375 278.433594 27.140625 C 278.433594 20.953125 278.71875 16.636719 279.292969 14.195312 C 279.867188 11.753906 280.90625 9.792969 282.40625 8.308594 C 283.90625 6.824219 286.089844 5.652344 288.960938 4.792969 C 290.90625 4.214844 293.972656 3.929688 298.152344 3.929688 L 300.6875 3.929688 L 300.6875 15.367188 C 297.148438 15.367188 294.871094 15.566406 293.867188 15.964844 C 292.863281 16.367188 292.121094 16.96875 291.640625 17.785156 C 291.164062 18.597656 290.925781 19.996094 290.925781 21.972656 C 290.925781 23.984375 290.78125 27.796875 290.492188 33.410156 C 290.332031 36.570312 289.917969 39.132812 289.25 41.09375 C 288.578125 43.054688 287.726562 44.675781 286.6875 45.949219 C 285.652344 47.226562 284.0625 48.550781 281.925781 49.925781 C 283.808594 51.007812 285.347656 52.277344 286.546875 53.730469 C 287.742188 55.179688 288.660156 56.941406 289.296875 59.019531 C 289.933594 61.089844 290.351562 63.867188 290.542969 67.34375 C 290.765625 72.640625 290.875 76.023438 290.875 77.492188 C 290.875 79.597656 291.132812 81.0625 291.640625 81.894531 C 292.152344 82.722656 292.925781 83.355469 293.964844 83.785156 C 295 84.214844 297.242188 84.429688 300.6875 84.429688 L 300.6875 95.917969 L 298.152344 95.917969 C 293.84375 95.917969 290.542969 95.574219 288.242188 94.890625 C 285.945312 94.203125 284.007812 93.0625 282.429688 91.46875 C 280.851562 89.871094 279.789062 87.902344 279.246094 85.554688 C 278.703125 83.210938 278.433594 79.515625 278.433594 74.476562 C 278.433594 68.605469 278.175781 64.792969 277.667969 63.039062 C 276.964844 60.484375 275.902344 58.65625 274.484375 57.558594 C 273.0625 56.457031 270.886719 55.828125 267.953125 55.667969 " fill-opacity="1" fill-rule="nonzero"/></g><path fill="#3cbcc7" d="M 340.5625 27.757812 L 333.070312 27.757812 L 333.070312 20.265625 L 340.5625 20.265625 L 340.5625 27.757812 " fill-opacity="1" fill-rule="nonzero"/><path fill="#3cbcc7" d="M 338.792969 42.738281 L 333.070312 42.738281 L 333.070312 37.015625 L 338.792969 37.015625 L 338.792969 42.738281 " fill-opacity="1" fill-rule="nonzero"/><g clip-path="url(#2f9cbabab7)"><path fill="#3cbcc7" d="M 317 33.480469 L 317 27.757812 L 322.722656 27.757812 L 322.722656 33.480469 Z M 331.558594 60.242188 C 330.121094 59.140625 329.054688 57.3125 328.351562 54.761719 C 327.964844 53.320312 327.734375 50.5625 327.660156 46.484375 L 322.722656 46.484375 L 322.722656 38.996094 L 327.550781 38.996094 C 327.433594 36.105469 327.179688 33.855469 326.796875 32.242188 C 326.238281 29.898438 325.175781 27.917969 323.613281 26.308594 C 322.050781 24.695312 320.121094 23.554688 317.824219 22.886719 C 315.523438 22.214844 312.222656 21.882812 307.914062 21.882812 L 305.378906 21.882812 L 305.378906 33.320312 C 308.984375 33.320312 311.304688 33.535156 312.34375 33.964844 C 313.378906 34.394531 314.097656 35.011719 314.496094 35.808594 C 314.894531 36.605469 315.109375 38.199219 315.140625 40.59375 C 315.300781 48.1875 315.554688 53.101562 315.90625 55.335938 C 316.449219 58.589844 317.46875 61.269531 318.972656 63.375 C 320.054688 64.84375 321.777344 66.34375 324.140625 67.875 C 322.320312 68.925781 320.828125 70.148438 319.664062 71.535156 C 318.5 72.925781 317.566406 74.617188 316.863281 76.609375 C 316.164062 78.601562 315.734375 81.261719 315.574219 84.578125 C 315.316406 90.066406 315.183594 93.78125 315.167969 95.730469 C 315.148438 97.675781 314.894531 99.054688 314.402344 99.871094 C 313.90625 100.683594 313.132812 101.304688 312.078125 101.738281 C 311.027344 102.167969 308.792969 102.382812 305.378906 102.382812 L 305.378906 113.871094 L 307.914062 113.871094 C 312.09375 113.871094 315.15625 113.582031 317.105469 113.007812 C 320.007812 112.144531 322.207031 110.972656 323.710938 109.488281 C 325.207031 108.007812 326.238281 106.035156 326.796875 103.578125 C 327.355469 101.121094 327.632812 96.796875 327.632812 90.609375 C 327.632812 86.84375 327.761719 84.195312 328.015625 82.664062 C 328.367188 80.621094 328.964844 78.921875 329.8125 77.566406 C 330.65625 76.210938 331.667969 75.246094 332.851562 74.671875 C 334.03125 74.097656 335.785156 73.746094 338.117188 73.617188 L 338.117188 62.132812 C 335.179688 61.972656 332.996094 61.339844 331.558594 60.242188 " fill-opacity="1" fill-rule="nonzero"/></g><g clip-path="url(#02b48af884)"><path fill="#3cbcc7" d="M 355.167969 13.210938 L 349.445312 13.210938 L 349.445312 7.484375 L 355.167969 7.484375 L 355.167969 13.210938 " fill-opacity="1" fill-rule="nonzero"/></g><path fill="#3cbcc7" d="M 326.46875 20.265625 L 315.785156 20.265625 L 315.785156 9.582031 L 326.46875 9.582031 L 326.46875 20.265625 " fill-opacity="1" fill-rule="nonzero"/></svg>